/* XPM */
static char * 2_xpm[] = {
"15 15 2 1",
" 	c None",
".	c #049D00",
"               ",
"               ",
" ..........    ",
" ..........    ",
"         ..    ",
"         ..    ",
" ..........    ",
" ..........    ",
" ..            ",
" ..            ",
" ..            ",
" ..........    ",
" ..........    ",
"               ",
"               "};
