/* XPM */
static char * 3_xpm[] = {
"15 15 2 1",
" 	c None",
".	c #FF0000",
"               ",
"               ",
" ..........    ",
" ..........    ",
"         ..    ",
"         ..    ",
"    .......    ",
"    .......    ",
"         ..    ",
"         ..    ",
"         ..    ",
" ..........    ",
" ..........    ",
"               ",
"               "};
