/* XPM */
static char * 4_xpm[] = {
"15 15 2 1",
" 	c None",
".	c #5B00A9",
"               ",
"               ",
" ..      ..    ",
" ..      ..    ",
" ..      ..    ",
" ..      ..    ",
" ..      ..    ",
" ..........    ",
" ..........    ",
"         ..    ",
"         ..    ",
"         ..    ",
"         ..    ",
"               ",
"               "};
