/* XPM */
static char * 5_xpm[] = {
"15 15 2 1",
" 	c None",
".	c #802424",
"               ",
"               ",
" ..........    ",
" ..........    ",
" ..            ",
" ..            ",
" ..........    ",
" ..........    ",
"         ..    ",
"         ..    ",
"         ..    ",
" ..........    ",
" ..........    ",
"               ",
"               "};
