/* XPM */
static char * 6_xpm[] = {
"15 15 2 1",
" 	c None",
".	c #00B2BD",
"               ",
"               ",
" ..........    ",
" ..........    ",
" ..            ",
" ..            ",
" ..........    ",
" ..........    ",
" ..      ..    ",
" ..      ..    ",
" ..      ..    ",
" ..........    ",
" ..........    ",
"               ",
"               "};
