/* XPM */
static char * 7_xpm[] = {
"15 15 2 1",
" 	c None",
".	c #9C00BD",
"               ",
"               ",
" ..........    ",
" ..........    ",
"         ..    ",
"        ...    ",
"        ..     ",
"       ..      ",
"      ...      ",
"      ..       ",
"     ..        ",
"    ...        ",
"    ..         ",
"               ",
"               "};
