/* XPM */
static char * bombface6_xpm[] = {
"15 15 7 1",
" 	c None",
".	c #FF7E00",
"+	c #000000",
"@	c #888888",
"#	c #EA8204",
"$	c #FFE611",
"%	c #FFFFFF",
"               ",
"               ",
"    .....      ",
"  ++++++..     ",
" ++++++++..    ",
"++@@++@@++.    ",
"+++@++@++#$    ",
"++%++++%+$#    ",
"+++++++++#$    ",
"+@@@@@@@@+     ",
"++%%%%%%++     ",
" ++@@@@++      ",
"  ++++++       ",
"               ",
"               "};
