/* XPM */
static char * flag_xpm[] = {
"15 15 4 1",
" 	c None",
".	c #000000",
"+	c #FF0000",
"@	c #001385",
"               ",
"               ",
"     .+++++    ",
"     .+++++    ",
"     .+++++    ",
"     .+++++    ",
"     .         ",
"     .         ",
"     .         ",
"     .         ",
"     .         ",
" @@@@@@@@@@    ",
" @@@@@@@@@@    ",
"               ",
"               "};
