/* XPM */
static char * n1_xpm[] = {
"13 19 8 1",
" 	c None",
".	c #000000",
"+	c #5DFF00",
"@	c #020600",
"#	c #030B00",
"$	c #54FF00",
"%	c #040D00",
"&	c #040C00",
".............",
".............",
".............",
"..........+@.",
"..........+#.",
"..........+#.",
"..........+#.",
"..........+#.",
"..........+#.",
"...........@.",
"..........$..",
"..........+%.",
"..........+#.",
"..........+#.",
"..........+#.",
"..........+#.",
"...........&.",
".............",
"............."};
