/* XPM */
static char * n5_xpm[] = {
"13 19 8 1",
" 	c None",
".	c #000000",
"+	c #000100",
"@	c #54FF00",
"#	c #58FF00",
"$	c #040D00",
"%	c #030B00",
"&	c #040C00",
".............",
"..........+..",
"...@@@@@@#...",
"..@..........",
"..@..........",
"..@..........",
"..@..........",
"..@..........",
"..@..........",
"...@@@@@@@+..",
"..........@..",
"..........@$.",
"..........@%.",
"..........@%.",
"..........@%.",
"..........@%.",
"...@@@@@@@.&.",
".............",
"............."};
