/* XPM */
static char * n6_xpm[] = {
"13 19 7 1",
" 	c None",
".	c #000000",
"+	c #000100",
"@	c #54FF00",
"#	c #040D00",
"$	c #030B00",
"%	c #040C00",
".............",
"..........+..",
"...@@@@@@@...",
"..@.......+..",
"..@..........",
"..@..........",
"..@..........",
"..@..........",
"..@..........",
"...@@@@@@@+..",
"..@.......@..",
"..@.......@#.",
"..@.......@$.",
"..@.......@$.",
"..@.......@$.",
"..@.......@$.",
"...@@@@@@@.%.",
".+...........",
"............."};
