/* XPM */
static char * n8_xpm[] = {
"13 19 13 1",
" 	c None",
".	c #000000",
"+	c #000100",
"@	c #54FF00",
"#	c #58FF00",
"$	c #020600",
"%	c #5DFF00",
"&	c #030B00",
"*	c #5AFF00",
"=	c #040D00",
"-	c #56FF00",
";	c #57FF00",
">	c #040C00",
".............",
"..........+..",
"...@@@@@@#...",
"..@.......@$.",
"..@.......%&.",
"..@.......%&.",
"..@.......%&.",
"..@.......%&.",
"..@.......%&.",
"...@@@@@@@...",
"..@.......@..",
"..*.......@=.",
"..-.......@&.",
"..-.......@&.",
"..-.......@&.",
"..;.......@&.",
"...@@@@@@@.>.",
".+...........",
"............."};
