/* XPM */
static char * nco_xpm[] = {
"6 19 4 1",
" 	c None",
".	c #000000",
"+	c #54FF00",
"@	c #5BFF00",
"......",
"......",
"......",
"......",
"......",
"..++..",
"..++..",
"......",
"......",
"......",
"......",
"......",
"..++..",
"..@+..",
"......",
"......",
"......",
"......",
"......"};
